<svg width="808" height="147" viewBox="0 0 808 147" fill="none" xmlns="http://www.w3.org/2000/svg">
<g clip-path="url(#clip0_6_771)">
<path fill-rule="evenodd" clip-rule="evenodd" d="M684 144.4H654V37.2H681L682 63L679.2 61.8C680.667 56.0667 682.9 51.2 685.9 47.2C688.9 43.2 692.533 40.1333 696.8 38C701.067 35.8667 705.733 34.8 710.8 34.8C719.733 34.8 726.967 37.4 732.5 42.6C736.378 46.2869 739.332 50.8354 741.124 55.877C742.038 58.3865 742.733 60.9705 743.2 63.6L739.4 63.8C739.92 61.0136 740.684 58.2782 741.681 55.625C742.704 52.8972 744.053 50.3034 745.7 47.9C747.653 45.034 750.081 42.5228 752.88 40.475C754.12 39.5782 755.431 38.7839 756.8 38.1C761.2 35.9 766.133 34.8 771.6 34.8C774.684 34.7822 777.762 35.077 780.787 35.68C784.302 36.3752 787.683 37.6312 790.8 39.4C795.433 42.0858 799.263 45.9635 801.891 50.63C802.358 51.4367 802.795 52.2606 803.2 53.1C805.826 58.5313 807.277 65.058 807.552 72.68C807.584 73.5863 807.6 74.4931 807.6 75.4V144.4H777.6V83.8C777.607 81.6001 777.507 79.4011 777.299 77.211C776.787 72.0223 775.621 67.9187 773.8 64.9C772.838 63.2706 771.519 61.8805 769.942 60.8344C768.365 59.7882 766.571 59.1132 764.696 58.86C763.606 58.6821 762.504 58.5951 761.4 58.6C759.806 58.5867 758.218 58.8088 756.689 59.259C755.058 59.7487 753.535 60.5431 752.2 61.6C750.722 62.7851 749.458 64.2152 748.464 65.828C747.634 67.1467 746.913 68.6373 746.3 70.3C745.658 72.075 745.177 73.9045 744.864 75.766C744.546 77.5973 744.342 79.5647 744.253 81.668C744.217 82.5115 744.2 83.3557 744.2 84.2V144.4H717.2V84.2C717.208 81.9125 717.102 79.626 716.883 77.349C716.408 72.6003 715.398 68.7117 713.855 65.683C713.772 65.5208 713.687 65.3598 713.6 65.2C712.729 63.5484 711.487 62.1219 709.97 61.0332C708.453 59.9445 706.704 59.2235 704.861 58.927C703.654 58.7023 702.428 58.5928 701.2 58.6C697.6 58.6 694.5 59.6 691.9 61.6C689.369 63.5473 687.438 66.3793 686.107 70.096C686.071 70.1971 686.035 70.2985 686 70.4C685.347 72.3272 684.866 74.3087 684.564 76.321C684.26 78.277 684.079 80.3687 684.021 82.596C684.007 83.1306 684 83.6653 684 84.2V144.4ZM564.6 84.4L599.2 77.6C599.211 75.6368 599.066 73.6759 598.764 71.736C598.432 69.686 597.911 67.8413 597.2 66.202C596.534 64.6337 595.623 63.1815 594.5 61.9C592.355 59.5055 589.506 57.8521 586.363 57.177C584.603 56.7789 582.804 56.5853 581 56.6C579.246 56.5896 577.495 56.7301 575.765 57.02C572.472 57.5933 569.75 58.7533 567.6 60.5C564.4 63.1 562.333 66.9333 561.4 72L531.2 70.6C531.92 66.1252 533.291 61.78 535.271 57.703C537.987 52.1778 542.056 47.4295 547.1 43.9C551.747 40.6834 556.939 38.3355 562.423 36.97C566.584 35.8847 571.108 35.2067 575.994 34.936C577.661 34.8444 579.33 34.7991 581 34.8C597 34.8 609.033 38.6 617.1 46.2C621.865 50.7661 625.301 56.5406 627.041 62.907C628.188 66.839 628.878 71.171 629.111 75.903C629.171 77.1344 629.201 78.3671 629.2 79.6V116.2C629.198 116.863 629.225 117.526 629.282 118.186C629.4 119.483 629.644 120.52 630.014 121.296C630.184 121.667 630.416 122.007 630.7 122.3C631.528 123.128 632.699 123.613 634.213 123.756C634.541 123.786 634.871 123.801 635.2 123.8H638.2V144.4C637.491 144.603 636.454 144.805 635.091 145.008C634.628 145.076 634.164 145.14 633.7 145.2C631.633 145.467 629.6 145.6 627.6 145.6C623.333 145.6 619.367 144.867 615.7 143.4C612.193 141.993 609.2 139.547 607.123 136.39C607.013 136.228 606.906 136.065 606.8 135.9C605.862 134.401 605.142 132.775 604.663 131.073C604.216 129.55 603.887 127.869 603.677 126.031C603.486 124.294 603.394 122.548 603.4 120.8L606 122.8C604.667 127.6 602.3 131.8 598.9 135.4C596.578 137.831 593.882 139.875 590.914 141.454C589.233 142.358 587.491 143.142 585.7 143.8C582.685 144.9 579.564 145.684 576.388 146.141C573.279 146.592 570.141 146.812 567 146.8C563.11 146.825 559.227 146.462 555.408 145.717C550.574 144.742 546.262 143.108 542.472 140.816C541.59 140.282 540.732 139.71 539.9 139.1C537.008 137.059 534.591 134.417 532.815 131.356C531.039 128.294 529.945 124.885 529.608 121.361C529.467 120.112 529.398 118.857 529.4 117.6C529.374 114.57 529.727 111.548 530.452 108.606C531.657 103.59 534.401 99.0773 538.3 95.7C540.814 93.5658 543.586 91.755 546.55 90.31C549.343 88.9167 552.468 87.6837 555.926 86.611C558.78 85.7349 561.675 84.997 564.6 84.4ZM62 144.4H0V2.4H55.2C72.8 2.4 86.2667 5.5 95.6 11.7C99.149 14.0383 102.166 17.0978 104.454 20.6793C106.742 24.2608 108.251 28.284 108.881 32.487C109.374 35.2976 109.614 38.1466 109.6 41C109.615 43.6026 109.35 46.1992 108.809 48.745C108.246 51.3868 107.3 53.9321 106 56.3C103.652 60.5179 100.173 63.9968 95.955 66.345C95.8041 66.4313 95.6524 66.5163 95.5 66.6C92.926 67.9971 90.1884 69.069 87.35 69.791C84.8773 70.437 82.218 70.8903 79.372 71.151C79.1814 71.1683 78.9907 71.1846 78.8 71.2V70.8C87.6807 71.3987 95.012 73.4723 100.794 77.021C102.703 78.1873 104.482 79.5548 106.1 81.1C112.433 87.1667 115.6 95.2 115.6 105.2C115.6 118.4 110.967 128.233 101.7 134.7C92.4333 141.167 79.2 144.4 62 144.4ZM339.4 144.4H277.4V2.4H332.6C350.2 2.4 363.667 5.5 373 11.7C376.549 14.0383 379.566 17.0978 381.854 20.6793C384.142 24.2608 385.651 28.284 386.281 32.487C386.774 35.2976 387.014 38.1466 387 41C387.015 43.6026 386.75 46.1992 386.209 48.745C385.646 51.3868 384.7 53.9321 383.4 56.3C381.052 60.5179 377.573 63.9968 373.355 66.345C373.204 66.4313 373.052 66.5163 372.9 66.6C370.326 67.9971 367.588 69.069 364.75 69.791C362.277 70.437 359.618 70.8903 356.772 71.151C356.581 71.1683 356.391 71.1846 356.2 71.2V70.8C365.081 71.3987 372.412 73.4723 378.194 77.021C380.103 78.1873 381.882 79.5548 383.5 81.1C389.833 87.1667 393 95.2 393 105.2C393 118.4 388.367 128.233 379.1 134.7C369.833 141.167 356.6 144.4 339.4 144.4ZM515.6 92.8V98.8H440.2C440.299 101.216 440.598 103.62 441.095 105.987C441.649 108.546 442.444 110.827 443.479 112.829C444.414 114.668 445.637 116.346 447.1 117.8C450.233 120.861 454.239 122.874 458.564 123.563C460.293 123.861 462.045 124.008 463.8 124C468.474 124 472.439 123.092 475.694 121.277C475.967 121.125 476.235 120.966 476.5 120.8C479.079 119.165 481.158 116.85 482.507 114.11C483.015 113.107 483.447 112.068 483.8 111L514 112.8C511.2 123.467 505.267 131.8 496.2 137.8C490.038 141.821 483.11 144.524 475.852 145.737C471.674 146.462 467.44 146.818 463.2 146.8C458.349 146.829 453.509 146.321 448.77 145.284C443.838 144.201 439.095 142.386 434.7 139.9C426.633 135.3 420.367 128.8 415.9 120.4C413.036 114.932 411.091 109.03 410.142 102.931C409.5 98.9195 409.185 94.8625 409.2 90.8C409.2 79.4667 411.433 69.6333 415.9 61.3C420.367 52.9667 426.6 46.4667 434.6 41.8C442.6 37.1333 452.067 34.8 463 34.8C467.736 34.7707 472.459 35.2868 477.077 36.338C481.905 37.4435 486.533 39.2858 490.8 41.8C498.667 46.4667 504.767 53.1333 509.1 61.8C513.403 70.4067 515.57 80.6567 515.6 92.55C515.6 92.6333 515.6 92.7167 515.6 92.8ZM258.2 144.4H232.2C229.234 144.417 226.271 144.202 223.338 143.757C220.267 143.27 217.512 142.508 215.071 141.471C212.367 140.357 209.899 138.737 207.8 136.7C202.6 131.567 200 123.4 200 112.2V12H230V108.6C230 112.971 230.777 116.164 232.331 118.179C232.617 118.552 232.942 118.895 233.3 119.2C235.5 121.067 238.8 122 243.2 122H258.2V144.4ZM167.4 144.4H137.4V37.2H167.4V144.4ZM258.2 59.6H182.8V37.2H258.2V59.6ZM30.4 83.2V119.6H60.6C62.9618 119.612 65.3207 119.434 67.654 119.068C70.258 118.645 72.6207 117.97 74.742 117.042C75.9837 116.502 77.1745 115.853 78.3 115.1C82.7667 112.1 85 107.6 85 101.6C85.0227 99.5959 84.7308 97.6006 84.135 95.687C83.114 92.5126 81.0599 89.7713 78.3 87.9C73.8333 84.7667 67.9333 83.2 60.6 83.2H30.4ZM307.8 83.2V119.6H338C340.362 119.612 342.721 119.434 345.054 119.068C347.658 118.645 350.021 117.97 352.142 117.042C353.384 116.502 354.575 115.853 355.7 115.1C360.167 112.1 362.4 107.6 362.4 101.6C362.423 99.5959 362.131 97.6006 361.535 95.687C360.514 92.5126 358.46 89.7713 355.7 87.9C351.233 84.7667 345.333 83.2 338 83.2H307.8ZM30.4 27.2V61.2H54.4C61.8667 61.2 67.8333 59.7333 72.3 56.8C76.4133 54.0987 78.6327 50.323 78.958 45.473C78.9862 45.0493 79.0002 44.6247 79 44.2C79.0189 42.4392 78.789 40.6845 78.317 38.988C77.4215 35.7812 75.3426 33.0336 72.5 31.3C70.6015 30.1299 68.5453 29.2375 66.394 28.65C64.4833 28.106 62.3823 27.7153 60.091 27.478C58.2001 27.2874 56.3005 27.1946 54.4 27.2H30.4ZM307.8 27.2V61.2H331.8C339.267 61.2 345.233 59.7333 349.7 56.8C353.813 54.0987 356.033 50.323 356.358 45.473C356.386 45.0493 356.4 44.6247 356.4 44.2C356.419 42.4392 356.189 40.6845 355.717 38.988C354.822 35.7812 352.743 33.0336 349.9 31.3C348.001 30.1299 345.945 29.2375 343.794 28.65C341.883 28.106 339.782 27.7153 337.491 27.478C335.6 27.2874 333.701 27.1946 331.8 27.2H307.8ZM440.2 80.4H484.8C484.698 78.119 484.401 75.851 483.91 73.621C483.361 71.2017 482.575 69.0497 481.554 67.165C480.693 65.5558 479.596 64.0845 478.3 62.8C475.113 59.6777 470.972 57.7135 466.538 57.221C465.365 57.0712 464.183 56.9973 463 57C460.422 56.9746 457.858 57.3691 455.407 58.168C452.421 59.1698 449.713 60.8592 447.5 63.1C443.433 67.1667 441 72.9333 440.2 80.4ZM599.2 101.6V96.4L574.8 101.6C573.328 101.879 571.875 102.255 570.452 102.723C569.012 103.205 567.721 103.767 566.578 104.41C565.62 104.942 564.722 105.575 563.9 106.3C562.774 107.282 561.865 108.488 561.23 109.841C560.596 111.193 560.249 112.663 560.214 114.157C560.204 114.371 560.2 114.586 560.2 114.8C560.2 118.4 561.4 121.2 563.8 123.2C564.96 124.146 566.291 124.859 567.72 125.303C569.561 125.901 571.721 126.2 574.2 126.2C576.466 126.213 578.728 125.985 580.946 125.52C583.12 125.062 585.224 124.315 587.2 123.3C590.933 121.367 593.867 118.533 596 114.8C597.431 112.258 598.387 109.477 598.821 106.592C599.079 104.941 599.205 103.271 599.2 101.6ZM167.8 24H136.8V0H167.8V24Z" fill="url(#paint0_linear_6_771)" stroke="url(#paint1_linear_6_771)" stroke-width="0.944882" stroke-linecap="round"/>
</g>
<defs>
<linearGradient id="paint0_linear_6_771" x1="0" y1="73.4006" x2="807.6" y2="73.4006" gradientUnits="userSpaceOnUse">
<stop offset="0.01" stop-color="#FF9900"/>
<stop offset="1" stop-color="#7F1AFF"/>
</linearGradient>
<linearGradient id="paint1_linear_6_771" x1="0" y1="73.4006" x2="807.6" y2="73.4006" gradientUnits="userSpaceOnUse">
<stop offset="0.01" stop-color="#FF9900"/>
<stop offset="1" stop-color="#7F1AFF"/>
</linearGradient>
<clipPath id="clip0_6_771">
<rect width="807.6" height="146.801" fill="white"/>
</clipPath>
</defs>
</svg>
